<?xml version="1.0" standalone="no"?>
<!DOCTYPE svg PUBLIC "-//W3C//DTD SVG 20010904//EN"
 "http://www.w3.org/TR/2001/REC-SVG-20010904/DTD/svg10.dtd">
<svg version="1.0" xmlns="http://www.w3.org/2000/svg"
 width="177.000000pt" height="177.000000pt" viewBox="0 0 177.000000 177.000000"
 preserveAspectRatio="xMidYMid meet">
<metadata>
Created by potrace 1.11, written by Peter Selinger 2001-2013
</metadata>
<g transform="translate(0.000000,177.000000) scale(0.100000,-0.100000)"
fill="#000000" stroke="none">
<path d="M650 1399 c0 -18 -3 -19 -15 -9 -19 16 -37 3 -30 -21 5 -15 1 -19
-14 -19 -15 0 -21 -6 -21 -21 0 -11 5 -17 10 -14 6 3 10 0 10 -9 0 -8 -5 -16
-12 -18 -6 -2 -9 -12 -5 -21 4 -10 12 -14 22 -11 11 5 15 0 13 -17 -3 -20 1
-24 20 -22 14 2 22 -3 22 -12 0 -21 30 -19 46 3 13 16 13 16 14 0 0 -20 8 -22
28 -10 7 5 10 16 6 26 -6 15 -3 17 13 12 22 -7 41 18 22 29 -5 4 -7 11 -3 16
3 5 10 7 15 4 5 -4 9 3 9 14 0 12 -7 21 -15 21 -18 0 -19 12 -4 27 17 17 1 35
-23 27 -17 -5 -20 -3 -15 10 4 10 -1 20 -13 26 -16 9 -20 8 -20 -5 0 -8 -4
-15 -10 -15 -5 0 -10 7 -10 15 0 8 -9 15 -20 15 -14 0 -20 -7 -20 -21z m83
-61 c23 -27 22 -53 -5 -78 -39 -36 -91 -20 -103 32 -5 21 -1 33 19 53 30 30
59 27 89 -7z"/>
<path d="M880 1375 c0 -8 0 -18 -1 -22 0 -4 26 -15 59 -25 249 -76 207 -429
-54 -447 -6 -1 -10 -11 -9 -23 2 -23 4 -23 143 -26 130 -2 142 -1 143 15 1 23
1 491 0 521 -1 22 -3 22 -141 22 -118 0 -140 -2 -140 -15z"/>
<path d="M926 1268 c-3 -15 -11 -19 -25 -15 -12 3 -21 2 -22 -1 -9 -53 -3 -74
22 -87 31 -16 40 -35 34 -67 -5 -23 -30 -48 -50 -48 -6 0 -10 -17 -10 -37 1
-32 5 -39 24 -41 13 -2 25 -12 28 -22 3 -12 11 -16 24 -13 21 6 23 11 9 33 -6
10 -4 20 7 32 12 14 19 15 34 5 14 -9 21 -9 31 1 11 11 10 16 -5 27 -25 18
-14 62 16 61 31 -1 28 27 -3 34 -30 7 -38 37 -15 54 10 7 14 18 9 29 -6 16 -9
16 -29 3 -20 -13 -24 -13 -37 4 -10 11 -13 23 -7 31 13 21 11 26 -10 32 -13 3
-21 -2 -25 -15z"/>
<path d="M592 1173 c-18 -4 -21 -9 -16 -25 9 -29 -16 -42 -34 -17 -13 18 -14
18 -37 2 -28 -21 -32 -38 -10 -50 10 -6 11 -13 5 -23 -8 -12 -13 -13 -29 -3
-17 11 -21 9 -30 -19 -15 -44 -14 -48 13 -48 19 0 23 -4 19 -20 -3 -11 -14
-20 -24 -20 -22 0 -23 -8 -9 -45 8 -21 13 -24 28 -16 29 15 47 -7 25 -31 -15
-17 -15 -19 2 -38 22 -24 34 -25 50 -3 15 21 37 8 33 -20 -2 -15 4 -23 22 -27
31 -8 50 -2 44 14 -3 7 2 19 11 26 14 11 17 10 22 -8 6 -26 44 -30 63 -7 10
12 10 18 -1 31 -18 22 9 39 32 18 14 -12 18 -12 32 4 21 23 22 48 2 56 -8 3
-15 13 -15 21 0 12 8 16 27 13 24 -3 27 0 27 32 0 30 -4 35 -25 35 -30 0 -38
31 -9 40 20 6 20 7 3 36 -20 33 -26 35 -43 14 -19 -23 -43 0 -29 27 12 22 12
21 -19 37 -25 13 -42 7 -42 -15 0 -8 -9 -14 -21 -14 -11 0 -18 4 -15 9 9 13
-4 41 -18 40 -6 -1 -21 -4 -34 -6z m124 -124 c50 -46 39 -134 -20 -170 -79
-48 -170 3 -170 97 0 95 118 141 190 73z"/>
<path d="M451 633 c-24 -21 -32 -59 -19 -88 5 -11 32 -34 61 -50 53 -31 64
-49 48 -74 -12 -19 -62 -17 -77 4 -14 19 -44 14 -44 -8 0 -24 35 -47 78 -51
56 -5 95 27 95 77 0 43 -19 68 -66 86 -38 15 -60 43 -51 66 7 17 36 20 62 6 9
-5 26 -5 36 -1 19 6 19 7 -2 28 -27 27 -91 30 -121 5z"/>
<path d="M661 631 c-20 -20 -26 -39 -21 -71 2 -19 40 -60 55 -60 21 0 65 -41
65 -60 0 -27 -33 -42 -64 -30 -14 5 -26 14 -26 20 0 12 -10 13 -28 2 -18 -12
-4 -40 27 -56 58 -29 123 -3 136 54 9 39 -7 65 -60 96 -52 30 -70 55 -53 72
15 15 51 15 65 1 7 -7 17 -8 27 -2 28 16 -4 44 -56 50 -37 4 -49 2 -67 -16z"/>
<path d="M890 643 c0 -5 -14 -66 -30 -137 -17 -72 -30 -131 -30 -134 0 -2 10
-2 22 0 19 3 25 14 37 76 8 39 17 72 21 72 3 0 23 -37 44 -82 l38 -83 42 89
42 88 18 -81 c14 -68 20 -81 36 -81 25 0 25 3 -6 135 -38 165 -34 162 -85 47
l-46 -102 -47 100 c-44 93 -56 112 -56 93z"/>
<path d="M1217 639 c-10 -6 -23 -22 -28 -37 -15 -40 5 -76 61 -106 58 -31 69
-54 40 -78 -22 -18 -43 -15 -72 9 -33 29 -53 -11 -20 -40 26 -24 78 -30 112
-12 33 17 52 67 38 100 -9 20 -69 65 -87 65 -17 0 -33 29 -26 50 7 23 35 26
65 8 16 -10 22 -10 32 0 11 11 9 17 -11 33 -25 21 -75 25 -104 8z"/>
</g>
</svg>
