<?xml version="1.0" standalone="no"?><!DOCTYPE svg PUBLIC "-//W3C//DTD SVG 1.1//EN" "http://www.w3.org/Graphics/SVG/1.1/DTD/svg11.dtd"><svg class="icon" height="512" viewBox="0 0 1024 1024" version="1.1" xmlns="http://www.w3.org/2000/svg"><path d="M733.150384 843.600162 733.150384 843.600162c-6.129778 0-12.052687-2.562586-15.884929-6.769778-5.231192-5.713455-21.779394-20.614465-35.322828-20.614465-13.46198 0-30.245495 14.996687-35.073293 20.258909-3.854222 4.130909-9.721535 6.630141-15.785374 6.630141-2.880646 0-5.58804-0.572768-8.084687-1.666586l-0.430545-0.190061-41.177212-23.011556-0.42796-0.293495c-7.46796-5.250586-10.369293-15.520323-6.639192-23.886869 0.055596-0.050424 3.80897-8.751838 3.80897-16.699475 0-24.053657-19.567192-43.646707-43.653172-43.646707l-1.733818 0c-6.901657 0-12.503919-6.111677-14.295919-15.57204-0.139636-0.782222-3.538747-18.766869-3.538747-32.932202 0-14.169212 3.399111-32.139636 3.538747-32.903758 1.81398-9.583192 7.545535-15.758222 14.555798-15.596606l1.473939 0c24.08598 0 43.653172-19.564606 43.653172-43.629899 0-7.945051-3.753374-16.636121-3.80897-16.733091-3.696485-8.370424-0.832646-18.594909 6.688323-23.849374l0.425374-0.283152 43.459232-23.867475 0.471919-0.221091c2.478545-1.044687 5.125172-1.565737 7.965737-1.565737 6.045737 0 11.95701 2.424242 15.817697 6.489212 5.145859 5.426424 21.392808 19.405576 34.544485 19.405576 13.050828 0 29.193051-13.74901 34.301414-19.026747 3.851636-3.965414 9.702141-6.371556 15.693576-6.371556 2.880646 0 5.607434 0.553374 8.114424 1.621333l0.447354 0.188768 41.984 23.319273 0.431838 0.292202c7.482182 5.253172 10.330505 15.498343 6.632727 23.876525-0.02198 0.068525-3.805091 8.762182-3.805091 16.707232 0 24.056242 19.585293 43.627313 43.650586 43.627313l1.493333 0c7.021899-0.165495 12.719838 6.018586 14.553212 15.600485 0.148687 0.755071 3.497374 18.733253 3.497374 32.902465s-3.375838 32.138343-3.497374 32.929616c-1.833374 9.580606-7.531313 15.738828-14.553212 15.565576l-1.493333 0c-24.064 0-43.650586 19.593051-43.650586 43.659636 0 7.910141 3.785697 16.643879 3.805091 16.716283 3.708121 8.34198 0.849455 18.61301-6.663758 23.842909l-0.421495 0.30901-42.706747 23.58303-0.422788 0.190061C738.622061 843.071354 735.976727 843.600162 733.150384 843.600162L733.150384 843.600162 733.150384 843.600162 733.150384 843.600162 733.150384 843.600162zM731.844525 823.484768c0.186182 0.09697 0.735677 0.332283 1.305859 0.332283l0.055596 0 39.89204-22.066424c-0.976162-2.232889-5.379879-13.090909-5.379879-24.388525 0-33.855354 26.675717-61.602909 60.099232-63.312162 0.479677-2.667313 3.072-17.613576 3.072-28.838788 0-11.200646-2.592323-26.154667-3.072-28.812929-33.427394-1.744162-60.099232-29.464566-60.099232-63.325091 0-11.381657 4.445091-22.244848 5.379879-24.410505l-39.235232-21.80396c-0.020687-0.023273-0.094384-0.023273-0.139636-0.023273-0.67103 0-1.309737 0.237899-1.499798 0.404687-0.66198 0.66198-6.343111 6.440081-14.501495 12.192323-12.100525 8.507475-23.535192 12.816808-34.001455 12.816808-10.555475 0-22.081939-4.419232-34.236768-13.071515-8.22303-5.875071-13.935192-11.748848-14.594586-12.417293-0.214626-0.137051-0.833939-0.404687-1.494626-0.404687l-0.146101 0-40.62901 22.306909c0.97099 2.276848 5.372121 13.098667 5.372121 24.410505 0 33.859232-26.682182 61.580929-60.07596 63.318626-0.506828 2.667313-3.118545 17.618747-3.118545 28.814222 0 11.230384 2.589737 26.152081 3.118545 28.814222 33.393778 1.73899 60.07596 29.486545 60.07596 63.334141 0 11.388121-4.451556 22.282343-5.401859 24.442828l38.449131 21.493657 0.094384 0c0.545616 0 1.119677-0.191354 1.307152-0.329697 0.687838-0.766707 6.467232-6.866747 14.718707-12.911192 12.357818-9.050505 24.054949-13.648162 34.828929-13.648162 10.912323 0 22.701253 4.685576 35.091394 13.886061C725.359192 816.46804 731.124364 822.703838 731.844525 823.484768L731.844525 823.484768 731.844525 823.484768 731.844525 823.484768 731.844525 823.484768zM682.079677 743.102061c-32.045253 0-58.106828-26.057697-58.106828-58.102949 0-32.078869 26.09002-58.135273 58.106828-58.135273 32.081455 0 58.128808 26.077091 58.128808 58.135273C740.208485 717.070222 714.131394 743.102061 682.079677 743.102061L682.079677 743.102061 682.079677 743.102061 682.079677 743.102061zM682.079677 646.619798c-21.132929 0-38.343111 17.239919-38.343111 38.379313 0 21.158788 17.230869 38.339232 38.343111 38.339232 21.185939 0 38.374141-17.207596 38.374141-38.339232C720.455111 663.835152 703.243636 646.619798 682.079677 646.619798L682.079677 646.619798 682.079677 646.619798 682.079677 646.619798zM700.979717 469.313939l-0.411152-124.493576c-71.928242-1.445495-141.174949-22.738747-199.280485-70.31596l0 0-34.808242-29.917091-34.426828 30.276525c-58.333091 47.634101-122.560646 70.639192-194.642747 71.743354l-0.687838 122.104242 0.111192 0c-1.097697 95.662545 50.826343 160.786101 89.54699 198.627556 2.517333 2.459152 31.681939 37.842747 105.606465 102.084525-0.228848-0.199111 0.302545 0.038788 0 0l51.037091 49.282586-2.169535 3.400404L461.906747 846.868687 280.694949 673.086061c-1.106747-1.124848-2.09196-2.327273-2.96598-3.582707-45.372768-47.428525-78.279111-123.024808-80.08404-193.907071 0 0 0.091798-3.647354 0.091798-5.352727l0.73697-132.964848 0 0-0.027152-11.648c0.034909-0.128-0.174545-28.523313-0.174545-28.523313l24.772525 7.364525 9.25996 1.762263 0 0c71.373576 6.039273 151.60501-40.132525 205.512404-88.502303 0.006465 0.005172 2.148848-1.635556 2.148848-1.635556l5.891879-4.686869c0 0 20.755394-17.674343 21.290667-17.674343l6.159515 5.356606 17.398949 15.666424c0 0 3.465051 2.980202 3.472808 2.973737 53.885414 48.369778 133.646222 92.849131 205.026263 86.81503l0 0 7.608889-0.341333 26.377051-4.151596 0 25.44097 0.037495 15.839677 0.227556 127.374222 0 0M423.755167 586.960405l171.558059-171.558059 32.718474 32.718474-171.558059 171.558059-32.718474-32.718474ZM382.247625 479.342822l82.437975 82.437975-32.721217 32.721217-82.437975-82.437975 32.721217-32.721217Z" /></svg>